<?xml version="1.0" encoding="UTF-8"?>
<svg id="Layer_1" data-name="Layer 1" xmlns="http://www.w3.org/2000/svg" viewBox="0 0 32 32">
  <defs>
    <style>
      .cls-1 {
        fill: #fff;
      }
    </style>
  </defs>
  <g id="Capa_1">
    <path d="M31.58,16c0,8.6-6.98,15.59-15.58,15.59S.42,24.6.42,16,7.4.41,16,.41s15.58,6.98,15.58,15.59ZM17.2,22.81c-1.39-.27-2.22-1.08-4.33-4.21q-.7-1.05-1.38-1.1c-1-.07-.92-.24-.89,1.96.04,2.51,0,2.45,1.46,2.69.38.06.41.09.41.31q0,.25-2.55.27c-2.39.02-2.55,0-2.6-.14-.1-.28.05-.42.57-.52.59-.11.9-.35.98-.76.04-.16.05-2.26.03-4.67-.03-5.07.03-4.76-.9-4.97-.58-.13-.77-.26-.69-.5.06-.16.18-.17,2.84-.21,3.95-.08,4.69.05,5.74.98,1.1.98,1.25,2.48.38,3.73-.39.56-1.17,1.17-1.77,1.39-.28.11-.52.22-.52.26,0,.12.89,1.39,1.45,2.07,1.48,1.8,2.28,2.5,3.1,2.71.52.14.66.28.52.53-.16.26-.93.32-1.85.14ZM13.47,16.36c1.94-.8,2.09-3.47.24-4.26-.48-.2-.6-.21-1.8-.21q-1.29,0-1.31,2.25c-.02,1.23,0,2.3.02,2.36.09.2,2.28.1,2.85-.14ZM20.25,13.59c-1.51-.28-2-1.21-1.93-3.58.04-1.31.15-1.67.65-2.22.89-.96,3.11-.88,3.93.16.35.44.32.57-.17.72q-.38.13-.73-.22c-.83-.8-2.26-.51-2.51.53-.13.46-.12,2.39,0,2.83.34,1.23,2.39,1.23,2.74,0,.21-.79.17-.85-.78-.89q-.46-.02-.46-.4t1.09-.4c1.41-.03,1.39-.05,1.32.98-.09,1.29-.44,1.92-1.28,2.28-.55.23-1.31.32-1.9.21Z"/>
    <path class="cls-1" d="M17.2,22.81c-1.39-.27-2.22-1.08-4.33-4.21q-.7-1.05-1.38-1.1c-1-.07-.92-.24-.89,1.96.04,2.51,0,2.45,1.46,2.69.38.06.41.09.41.31q0,.25-2.55.27c-2.39.02-2.55,0-2.6-.14-.1-.28.05-.42.57-.52.59-.11.9-.35.98-.76.04-.16.05-2.26.03-4.67-.03-5.07.03-4.76-.9-4.97-.58-.13-.77-.26-.69-.5.06-.16.18-.17,2.84-.21,3.95-.08,4.69.05,5.74.98,1.1.98,1.25,2.48.38,3.73-.39.56-1.17,1.17-1.77,1.39-.28.11-.52.22-.52.26,0,.12.89,1.39,1.45,2.07,1.48,1.8,2.28,2.5,3.1,2.71.52.14.66.28.52.53-.16.26-.93.32-1.85.14ZM13.47,16.36c1.94-.8,2.09-3.47.24-4.26-.48-.2-.6-.21-1.8-.21q-1.29,0-1.31,2.25c-.02,1.23,0,2.3.02,2.36.09.2,2.28.1,2.85-.14ZM20.25,13.59c-1.51-.28-2-1.21-1.93-3.58.04-1.31.15-1.67.65-2.22.89-.96,3.11-.88,3.93.16.35.44.32.57-.17.72q-.38.13-.73-.22c-.83-.8-2.26-.51-2.51.53-.13.46-.12,2.39,0,2.83.34,1.23,2.39,1.23,2.74,0,.21-.79.17-.85-.78-.89q-.46-.02-.46-.4t1.09-.4c1.41-.03,1.39-.05,1.32.98-.09,1.29-.44,1.92-1.28,2.28-.55.23-1.31.32-1.9.21Z"/>
  </g>
</svg>