<?xml version="1.0" encoding="UTF-8"?>
<svg id="Layer_1" data-name="Layer 1" xmlns="http://www.w3.org/2000/svg" viewBox="0 0 32 32">
  <defs>
    <style>
      .cls-1 {
        fill: #fff;
      }
    </style>
  </defs>
  <g id="Capa_1">
    <path d="M30.44,16c0,7.98-6.47,14.45-14.44,14.45S1.56,23.98,1.56,16,8.02,1.55,16,1.55s14.44,6.47,14.44,14.45ZM17.11,22.31c-1.29-.25-2.06-1-4.01-3.9q-.65-.97-1.28-1.02c-.93-.06-.86-.23-.83,1.82.04,2.33,0,2.27,1.35,2.5.35.05.38.08.38.29q0,.23-2.36.25c-2.22.02-2.36,0-2.41-.13-.09-.26.05-.39.53-.48.55-.1.84-.32.91-.7.04-.14.05-2.09.03-4.33-.03-4.7.03-4.42-.84-4.61-.54-.12-.71-.24-.64-.46.05-.14.17-.15,2.63-.2,3.66-.07,4.35.05,5.32.91,1.02.91,1.16,2.3.35,3.46-.36.52-1.08,1.08-1.64,1.29-.26.1-.48.21-.48.24,0,.11.83,1.29,1.34,1.92,1.37,1.67,2.11,2.32,2.88,2.52.48.13.61.26.48.5-.14.24-.87.3-1.71.13ZM13.66,16.33c1.8-.74,1.94-3.22.23-3.95-.44-.19-.56-.2-1.67-.2q-1.2,0-1.22,2.08c-.02,1.14,0,2.14.02,2.19.08.19,2.11.09,2.64-.13ZM19.94,13.76c-1.4-.26-1.86-1.12-1.79-3.32.04-1.22.14-1.55.6-2.06.83-.89,2.89-.81,3.64.14.32.41.3.53-.15.67q-.35.12-.68-.21c-.77-.74-2.09-.47-2.33.49-.12.42-.11,2.22,0,2.62.32,1.14,2.22,1.14,2.54,0,.2-.73.15-.78-.72-.83q-.42-.02-.42-.37t1.01-.37c1.31-.03,1.29-.05,1.23.91-.08,1.2-.41,1.78-1.19,2.12-.51.22-1.22.3-1.76.2Z"/>
    <path class="cls-1" d="M17.11,22.31c-1.29-.25-2.06-1-4.01-3.9q-.65-.97-1.28-1.02c-.93-.06-.86-.23-.83,1.82.04,2.33,0,2.27,1.35,2.5.35.05.38.08.38.29q0,.23-2.36.25c-2.22.02-2.36,0-2.41-.13-.09-.26.05-.39.53-.48.55-.1.84-.32.91-.7.04-.14.05-2.09.03-4.33-.03-4.7.03-4.42-.84-4.61-.54-.12-.71-.24-.64-.46.05-.14.17-.15,2.63-.2,3.66-.07,4.35.05,5.32.91,1.02.91,1.16,2.3.35,3.46-.36.52-1.08,1.08-1.64,1.29-.26.1-.48.21-.48.24,0,.11.83,1.29,1.34,1.92,1.37,1.67,2.11,2.32,2.88,2.52.48.13.61.26.48.5-.14.24-.87.3-1.71.13ZM13.66,16.33c1.8-.74,1.94-3.22.23-3.95-.44-.19-.56-.2-1.67-.2q-1.2,0-1.22,2.08c-.02,1.14,0,2.14.02,2.19.08.19,2.11.09,2.64-.13ZM19.94,13.76c-1.4-.26-1.86-1.12-1.79-3.32.04-1.22.14-1.55.6-2.06.83-.89,2.89-.81,3.64.14.32.41.3.53-.15.67q-.35.12-.68-.21c-.77-.74-2.09-.47-2.33.49-.12.42-.11,2.22,0,2.62.32,1.14,2.22,1.14,2.54,0,.2-.73.15-.78-.72-.83q-.42-.02-.42-.37t1.01-.37c1.31-.03,1.29-.05,1.23.91-.08,1.2-.41,1.78-1.19,2.12-.51.22-1.22.3-1.76.2Z"/>
  </g>
</svg>